<?xml version="1.0" encoding="UTF-8"?>
<svg version="1.1" xmlns="http://www.w3.org/2000/svg" width="459" height="139">
<path d="M0 0 C0 0.99 0 1.98 0 3 C-0.99 3.66 -1.98 4.32 -3 5 C19.11 5 41.22 5 64 5 C64.33 4.01 64.66 3.02 65 2 C65.99 3.485 65.99 3.485 67 5 C67.99 5.33 68.98 5.66 70 6 C70 6.66 70 7.32 70 8 C68.68 8 67.36 8 66 8 C66.03552979 8.69295166 66.07105957 9.38590332 66.10766602 10.09985352 C67.33035296 35.42519051 66.71356111 60.6661534 66 86 C66.99 86 67.98 86 69 86 C68.67 82.37 68.34 78.74 68 75 C71.75635569 75.75127114 73.83210307 76.24005726 77 78 C77 78.66 77 79.32 77 80 C89.99008641 83.33690293 106.93226067 84.73971857 119 78 C121.94314815 75.91690066 121.94314815 75.91690066 124 74 C124.66 74 125.32 74 126 74 C126.00364563 73.2616391 126.00729126 72.5232782 126.01104736 71.76254272 C126.04898539 64.78871658 126.10590396 57.81527286 126.18390274 50.84178734 C126.22333601 47.25697429 126.25554438 43.67240533 126.27099609 40.08740234 C126.28619074 36.6246726 126.32068408 33.16261408 126.36830902 29.70018387 C126.39026753 27.74280259 126.39247133 25.78523181 126.39434814 23.82772827 C126.57763071 12.66649371 126.57763071 12.66649371 131 8 C134 6 134 6 146 6 C146 27.78 146 49.56 146 72 C159.2 72 172.4 72 186 72 C185.67 77.28 185.34 82.56 185 88 C182.38022217 87.98428955 182.38022217 87.98428955 179.70751953 87.96826172 C173.9439801 87.93604183 168.18044378 87.91304423 162.41684151 87.89637566 C158.92156073 87.88592802 155.42637717 87.87175117 151.93115234 87.84912109 C147.91502944 87.82328047 143.89900903 87.81353534 139.8828125 87.8046875 C138.62445587 87.79436493 137.36609924 87.78404236 136.0696106 87.77340698 C134.32803177 87.77318039 134.32803177 87.77318039 132.55126953 87.77294922 C131.01238571 87.76628738 131.01238571 87.76628738 129.44241333 87.75949097 C126.82009789 87.75696329 126.82009789 87.75696329 125 90 C122.5196228 90.20254517 122.5196228 90.20254517 119.35693359 90.13525391 C118.17586029 90.11508209 116.99478699 90.09491028 115.77792358 90.0741272 C114.49769318 90.04193085 113.21746277 90.0097345 111.8984375 89.9765625 C110.59170074 89.95153656 109.28496399 89.92651062 107.93862915 89.90072632 C104.46302445 89.83404864 100.98779924 89.75516231 97.51251221 89.67376709 C93.96682308 89.59287261 90.42091121 89.52347666 86.875 89.453125 C79.91640455 89.31336337 72.95814231 89.16070824 66 89 C66.33 89.99 66.66 90.98 67 92 C66.01 92.495 66.01 92.495 65 93 C65 91.68 65 90.36 65 89 C44.54 89.33 24.08 89.66 3 90 C4.485 90.99 4.485 90.99 6 92 C6 92.66 6 93.32 6 94 C3.08542477 93.58363211 1.16415977 93.10736934 -1.32199097 91.48129272 C-4.3831427 89.78807148 -6.18779076 89.62032065 -9.66064453 89.61181641 C-11.3272966 89.59763168 -11.3272966 89.59763168 -13.02761841 89.5831604 C-14.21733246 89.58923309 -15.40704651 89.59530579 -16.6328125 89.6015625 C-17.86160126 89.59869232 -19.09039001 89.59582214 -20.35641479 89.59286499 C-22.95034242 89.59082563 -25.54428548 89.59634649 -28.13818359 89.60888672 C-32.11720959 89.62496851 -36.09522397 89.60901844 -40.07421875 89.58984375 C-42.59375225 89.59182566 -45.11328512 89.59566826 -47.6328125 89.6015625 C-48.82657501 89.59548981 -50.02033752 89.58941711 -51.25027466 89.5831604 C-52.90747025 89.59734512 -52.90747025 89.59734512 -54.59814453 89.61181641 C-55.57123566 89.61420319 -56.54432678 89.61658997 -57.54690552 89.61904907 C-60.37585681 90.05836832 -61.25679876 90.78686806 -63 93 C-63 91.68 -63 90.36 -63 89 C-64.32 89 -65.64 89 -67 89 C-67 88.01 -67 87.02 -67 86 C-65.68 86 -64.36 86 -63 86 C-63 60.26 -63 34.52 -63 8 C-64.32 8 -65.64 8 -67 8 C-67 7.34 -67 6.68 -67 6 C-66.01 5.67 -65.02 5.34 -64 5 C-63.67 4.01 -63.34 3.02 -63 2 C-62.34 2 -61.68 2 -61 2 C-61 3.32 -61 4.64 -61 6 C-43.51 6 -26.02 6 -8 6 C-8 5.34 -8 4.68 -8 4 C-2.58823529 0 -2.58823529 0 0 0 Z M-11.3125 11.4375 C-12.82081706 13.62664286 -12.82081706 13.62664286 -14 16 C-14.4021875 16.74378906 -14.804375 17.48757812 -15.21875 18.25390625 C-19.46415041 26.97213923 -20.342505 35.24090437 -20.3125 44.8125 C-20.32861328 45.82892578 -20.34472656 46.84535156 -20.36132812 47.89257812 C-20.36970469 61.03540976 -16.21242625 71.26033679 -8.9375 82.0625 C-5.92619345 85.07380655 -3.11522946 85.93003579 1.11328125 86.1953125 C2.16902344 86.17210938 3.22476563 86.14890625 4.3125 86.125 C5.91544922 86.09792969 5.91544922 86.09792969 7.55078125 86.0703125 C8.35902344 86.04710938 9.16726563 86.02390625 10 86 C9.40445313 85.71382813 8.80890625 85.42765625 8.1953125 85.1328125 C6 84 6 84 2.875 81.875 C0.29286023 79.81791074 0.29286023 79.81791074 -2 80 C-2 79.34 -2 78.68 -2 78 C-2.66 78 -3.32 78 -4 78 C-4.29003906 77.41476563 -4.58007812 76.82953125 -4.87890625 76.2265625 C-5.55724488 74.87933944 -6.24886587 73.53854021 -6.96484375 72.2109375 C-13.98316267 58.96350821 -15.07030974 44.5017568 -11 30 C-9.81538528 27.45623484 -8.5245686 25.11102444 -7.0234375 22.7421875 C-5.83116229 21.04934838 -5.83116229 21.04934838 -6 19 C-5.34 19 -4.68 19 -4 19 C-4 18.34 -4 17.68 -4 17 C-3.34 17 -2.68 17 -2 17 C-2 16.34 -2 15.68 -2 15 C-1.34 15 -0.68 15 0 15 C0 14.34 0 13.68 0 13 C0.9075 12.731875 1.815 12.46375 2.75 12.1875 C5.74566479 11.09293017 7.54123555 9.95097614 10 8 C-1.60715805 6.48444024 -1.60715805 6.48444024 -11.3125 11.4375 Z M42 8 C45.56666667 11.3 45.56666667 11.3 49 11 C49 11.66 49 12.32 49 13 C49.721875 13.4125 50.44375 13.825 51.1875 14.25 C56.89654328 17.80229359 60.8888533 23.6665599 63 30 C63.66 30 64.32 30 65 30 C65 22.74 65 15.48 65 8 C57.41 8 49.82 8 42 8 Z M-45 22 C-45 26.95 -45 31.9 -45 37 C-37.74 37 -30.48 37 -23 37 C-21.68 32.05 -20.36 27.1 -19 22 C-27.58 22 -36.16 22 -45 22 Z M10.21484375 28.12890625 C3.82273648 37.30150462 3.88101141 47.77358941 5.35546875 58.61328125 C7.12126088 64.52690725 12.06808873 68.57244988 17 72 C22.43073365 73.90235093 28.52897821 73.96020684 33.875 71.8828125 C36.30270185 70.66206469 38.66592087 69.39051523 41 68 C41 67.34 41 66.68 41 66 C41.66 66 42.32 66 43 66 C43 65.01 43 64.02 43 63 C43.66 63 44.32 63 45 63 C49.04211963 53.83786217 48.93770371 44.43157508 46 35 C45.05836649 32.97186629 44.07760308 30.95927833 43 29 C42.34 29 41.68 29 41 29 C40.814375 28.401875 40.62875 27.80375 40.4375 27.1875 C38.29216393 23.92285815 35.6695966 22.88401027 32 22 C23.60450308 21.0441341 15.92318439 21.32136654 10.21484375 28.12890625 Z M-45 53 C-45 63.89 -45 74.78 -45 86 C-32.79 86 -20.58 86 -8 86 C-9.98 83.69 -11.96 81.38 -14 79 C-18.79861136 70.78277009 -21.16484449 62.27773064 -23 53 C-30.26 53 -37.52 53 -45 53 Z M63 65 C62.37237545 66.22782862 61.74803935 67.45733836 61.125 68.6875 C60.75503906 69.41582031 60.38507813 70.14414063 60.00390625 70.89453125 C58.9036082 73.08532592 58.9036082 73.08532592 58.0625 75.875 C57 78 57 78 54.5625 79.1875 C53.716875 79.455625 52.87125 79.72375 52 80 C51.01 80.66 50.02 81.32 49 82 C49 82.66 49 83.32 49 84 C47.02 84.33 45.04 84.66 43 85 C43 85.33 43 85.66 43 86 C50.26 86 57.52 86 65 86 C65 79.07 65 72.14 65 65 C64.34 65 63.68 65 63 65 Z M126 75 C127 77 127 77 127 77 Z M126 78 C126 80.64 126 83.28 126 86 C126.33 86 126.66 86 127 86 C127 83.36 127 80.72 127 78 C126.67 78 126.34 78 126 78 Z " fill="#444444" transform="translate(266,2)"/>
<path d="M0 0 C0 27.06 0 54.12 0 82 C-4.62 82 -9.24 82 -14 82 C-14.68543143 77.88741141 -15.11726187 74.67737862 -15.0625 70.625 C-15.05347656 69.75101562 -15.04445313 68.87703125 -15.03515625 67.9765625 C-15.02355469 67.32429688 -15.01195313 66.67203125 -15 66 C-20.23290697 66.11808403 -25.46561751 66.24232036 -30.69824219 66.37231445 C-32.47912603 66.4156833 -34.26005198 66.45735694 -36.04101562 66.49731445 C-38.59778548 66.5549699 -41.15434298 66.6186777 -43.7109375 66.68359375 C-44.50994476 66.70030624 -45.30895203 66.71701874 -46.13217163 66.73423767 C-50.19806368 66.75392991 -50.19806368 66.75392991 -54 68 C-54.72693904 69.97888961 -55.39816251 71.97954558 -56 74 C-56.66 74 -57.32 74 -58 74 C-58.66 75.65 -59.32 77.3 -60 79 C-60.66 79 -61.32 79 -62 79 C-62.33 79.99 -62.66 80.98 -63 82 C-69.27 82 -75.54 82 -82 82 C-81 78 -81 78 -80 76 C-79.34 76 -78.68 76 -78 76 C-77.34 74.02 -76.68 72.04 -76 70 C-75.34 70 -74.68 70 -74 70 C-74 69.34 -74 68.68 -74 68 C-73.34 68 -72.68 68 -72 68 C-71.67708984 67.00033203 -71.67708984 67.00033203 -71.34765625 65.98046875 C-69.55153877 62.00818574 -67.06106096 58.77586921 -64.4375 55.3125 C-63.43495214 53.97619414 -62.43359272 52.63899559 -61.43359375 51.30078125 C-60.99072021 50.71466064 -60.54784668 50.12854004 -60.09155273 49.5246582 C-58.92281806 47.97650186 -58.92281806 47.97650186 -58 46 C-57.34 46 -56.68 46 -56 46 C-55.64421875 44.95585938 -55.64421875 44.95585938 -55.28125 43.890625 C-53.75518089 40.4476642 -51.77489013 37.74871881 -49.5 34.75 C-49.09652344 34.20859375 -48.69304687 33.6671875 -48.27734375 33.109375 C-45.26477616 29.13238808 -45.26477616 29.13238808 -43 28 C-42.30090867 26.68337799 -41.64017617 25.34625283 -41 24 C-40.02563191 22.40076541 -39.02454893 20.81755987 -38 19.25 C-37.484375 18.45078125 -36.96875 17.6515625 -36.4375 16.828125 C-35.963125 16.22484375 -35.48875 15.6215625 -35 15 C-34.34 15 -33.68 15 -33 15 C-32.7525 14.29875 -32.505 13.5975 -32.25 12.875 C-30.82819762 9.60485452 -29.12753712 6.858878 -27 4 C-26.34 4 -25.68 4 -25 4 C-25 3.34 -25 2.68 -25 2 C-21 0 -21 0 0 0 Z M-17 21 C-17 21.66 -17 22.32 -17 23 C-17.66 23 -18.32 23 -19 23 C-21.96235695 26.63323689 -21.96235695 26.63323689 -23 31 C-23.66 31 -24.32 31 -25 31 C-25.66 32.65 -26.32 34.3 -27 36 C-27.66 36 -28.32 36 -29 36 C-30.75200564 38.10827786 -30.75200564 38.10827786 -32.5 40.75 C-33.1084375 41.63171875 -33.716875 42.5134375 -34.34375 43.421875 C-36.17446588 46.17030302 -36.17446588 46.17030302 -38 50 C-30.74 50 -23.48 50 -16 50 C-16 40.43 -16 30.86 -16 21 C-16.33 21 -16.66 21 -17 21 Z " fill="#464646" transform="translate(131,8)"/>
<path d="M0 0 C1.89139458 0.00033989 1.89139458 0.00033989 3.82099915 0.00068665 C5.18690348 0.01600415 6.55280414 0.0316521 7.91870117 0.04760742 C9.32402594 0.05320705 10.7293566 0.05747542 12.13468933 0.06047058 C15.82225897 0.07189062 19.50947061 0.10133276 23.19689941 0.13458252 C26.96414345 0.16534506 30.73144569 0.17898908 34.4987793 0.1940918 C41.88240554 0.22620569 49.26573744 0.27736701 56.64916992 0.34057617 C55.88674222 3.72790811 54.73619851 6.01860131 52.77416992 8.90307617 C52.00459961 10.04969727 52.00459961 10.04969727 51.21948242 11.21948242 C47.55425756 16.17027122 47.55425756 16.17027122 44.73188782 16.70133972 C44.01018906 16.69467789 43.2884903 16.68801605 42.54492188 16.68115234 C41.31398552 16.68081245 41.31398552 16.68081245 40.05818176 16.6804657 C38.73617012 16.65723991 38.73617012 16.65723991 37.38745117 16.63354492 C36.02876167 16.62717766 36.02876167 16.62717766 34.6426239 16.62068176 C31.74867059 16.60388465 28.85541286 16.56623067 25.96166992 16.52807617 C24.00009144 16.51303066 22.03850204 16.49934203 20.0769043 16.48706055 C15.26739136 16.45397774 10.45839859 16.40218839 5.64916992 16.34057617 C5.64916992 21.29057617 5.64916992 26.24057617 5.64916992 31.34057617 C14.88916992 31.34057617 24.12916992 31.34057617 33.64916992 31.34057617 C32.70402617 36.06629494 31.91620216 37.83459378 29.21166992 41.59057617 C28.59420898 42.46198242 27.97674805 43.33338867 27.34057617 44.23120117 C25.64916992 46.34057617 25.64916992 46.34057617 23.64916992 47.34057617 C22.27368836 47.42366255 20.89431196 47.44793633 19.51635742 47.43823242 C18.71069336 47.43500977 17.9050293 47.43178711 17.07495117 47.4284668 C15.81231445 47.41589844 15.81231445 47.41589844 14.52416992 47.40307617 C13.24993164 47.39630859 13.24993164 47.39630859 11.94995117 47.3894043 C9.84966083 47.37760491 7.74940662 47.35966923 5.64916992 47.34057617 C5.67011719 48.10200928 5.69106445 48.86344238 5.71264648 49.64794922 C5.79594787 53.10785649 5.84787577 56.56755255 5.89916992 60.02807617 C5.94944336 61.82535156 5.94944336 61.82535156 6.00073242 63.65893555 C6.01362305 64.81586914 6.02651367 65.97280273 6.03979492 67.16479492 C6.06074219 68.22786865 6.08168945 69.29094238 6.10327148 70.38623047 C5.53448231 74.08672392 4.15114729 75.60619165 1.64916992 78.34057617 C1.22686096 79.0441777 0.804552 79.74777924 0.3694458 80.47270203 C-1.35083008 82.34057617 -1.35083008 82.34057617 -4.05004883 82.73120117 C-5.03618164 82.68479492 -6.02231445 82.63838867 -7.03833008 82.59057617 C-8.03219727 82.55448242 -9.02606445 82.51838867 -10.05004883 82.48120117 C-10.80930664 82.43479492 -11.56856445 82.38838867 -12.35083008 82.34057617 C-12.37398185 72.48322389 -12.39175967 62.62587806 -12.40264225 52.76850414 C-12.40786485 48.19152556 -12.41495126 43.61456555 -12.42626953 39.03759766 C-12.43712046 34.62207672 -12.44311161 30.20657366 -12.44570732 25.79104042 C-12.44755758 24.10490957 -12.45117057 22.41877973 -12.45656013 20.73265648 C-12.4637998 18.37432093 -12.46481978 16.01605968 -12.46435547 13.65771484 C-12.46795074 12.95784454 -12.47154602 12.25797424 -12.47525024 11.53689575 C-12.4688015 8.51767744 -12.31434777 6.23112925 -11.35083008 3.34057617 C-7.5566219 0.4212738 -4.72250634 -0.02839182 0 0 Z " fill="#454545" transform="translate(37.350830078125,7.659423828125)"/>
<path d="M0 0 C0.66 0 1.32 0 2 0 C2 1.32 2 2.64 2 4 C19.16 4 36.32 4 54 4 C52.13890148 9.58329557 51.8226259 10.4090484 48 14 C47.59031982 14.85489014 47.18063965 15.70978027 46.75854492 16.59057617 C45 19 45 19 42.1809082 19.56762695 C41.06546631 19.54144287 39.95002441 19.51525879 38.80078125 19.48828125 C36.98803711 19.46411133 36.98803711 19.46411133 35.13867188 19.43945312 C33.2447168 19.37661133 33.2447168 19.37661133 31.3125 19.3125 C30.03826172 19.28994141 28.76402344 19.26738281 27.45117188 19.24414062 C24.30028276 19.18513521 21.1499956 19.09545441 18 19 C18 24.28 18 29.56 18 35 C25.59 35.33 33.18 35.66 41 36 C41 40.62 41 45.24 41 50 C33.41 50 25.82 50 18 50 C18.01160156 52.26359375 18.02320313 54.5271875 18.03515625 56.859375 C18.04295986 59.05696472 18.0490292 61.25455289 18.05493164 63.45214844 C18.05995365 64.97689507 18.0667725 66.50163691 18.07543945 68.02636719 C18.08759849 70.22071519 18.09324968 72.4149994 18.09765625 74.609375 C18.10551147 76.5888916 18.10551147 76.5888916 18.11352539 78.60839844 C18.02311329 81.30948418 17.81881355 83.4500616 17 86 C14.91695462 86.05418326 12.83350232 86.09287551 10.75 86.125 C9.58984375 86.14820312 8.4296875 86.17140625 7.234375 86.1953125 C4 86 4 86 0 84 C0 58.26 0 32.52 0 6 C-1.32 6 -2.64 6 -4 6 C-4 5.34 -4 4.68 -4 4 C-3.01 3.67 -2.02 3.34 -1 3 C-0.67 2.01 -0.34 1.02 0 0 Z " fill="#414141" transform="translate(203,4)"/>
<path d="M0 0 C0 21.78 0 43.56 0 66 C12.87 66 25.74 66 39 66 C39 71.28 39 76.56 39 82 C20.19 82 1.38 82 -18 82 C-18.16043524 62.94385903 -18.16043524 62.94385903 -18.1953125 54.82421875 C-18.21922898 49.28255913 -18.24752919 43.74116373 -18.30175781 38.19970703 C-18.34520263 33.73228306 -18.36913432 29.26514241 -18.37950897 24.7975235 C-18.38690283 23.09263905 -18.40134132 21.3877702 -18.42292023 19.68300629 C-18.45193694 17.29581636 -18.45595686 14.9097987 -18.45410156 12.52246094 C-18.46848267 11.81683517 -18.48286377 11.11120941 -18.49768066 10.38420105 C-18.46909349 6.98727461 -18.23195859 5.29341256 -16.09661865 2.59234619 C-10.36866367 -1.75793815 -9.85507906 0 0 0 Z " fill="#434343" transform="translate(157,8)"/>
<path d="M0 0 C0 21.78 0 43.56 0 66 C13.2 66 26.4 66 40 66 C39.67 71.28 39.34 76.56 39 82 C20.19 82 1.38 82 -18 82 C-18.16043524 63.23353377 -18.16043524 63.23353377 -18.1953125 55.22851562 C-18.21921568 49.76815222 -18.2474802 44.30805735 -18.30175781 38.84790039 C-18.34524818 34.44530992 -18.36914393 30.04300745 -18.37950897 25.64021873 C-18.38689464 23.96127985 -18.4013173 22.28235656 -18.42292023 20.60354042 C-18.45199756 18.25007811 -18.45595434 15.89780275 -18.45410156 13.54418945 C-18.46848267 12.8515097 -18.48286377 12.15882996 -18.49768066 11.44515991 C-18.45734206 6.70348957 -17.3413294 4.33235622 -14 1 C-9.81537205 -1.09231398 -4.67855628 0 0 0 Z " fill="#3F3F3F" transform="translate(412,8)"/>
<path d="M0 0 C0.68429077 -0.00095673 1.36858154 -0.00191345 2.0736084 -0.00289917 C3.52286877 -0.0035808 4.97213218 -0.00172773 6.42138672 0.00244141 C8.64687928 0.00778998 10.87217001 0.0024959 13.09765625 -0.00390625 C14.50260461 -0.00324547 15.90755285 -0.0019643 17.3125 0 C18.59962891 0.00112793 19.88675781 0.00225586 21.21289062 0.00341797 C24.15625 0.1328125 24.15625 0.1328125 25.15625 1.1328125 C25.2498419 2.85146659 25.27369611 4.57396994 25.26977539 6.29516602 C25.26969986 7.39623184 25.26962433 8.49729767 25.26954651 9.63172913 C25.26438522 10.8296257 25.25922394 12.02752228 25.25390625 13.26171875 C25.2524913 14.48108627 25.25107635 15.7004538 25.24961853 16.95677185 C25.24399967 20.8696432 25.23144396 24.78245831 25.21875 28.6953125 C25.21373743 31.34049397 25.2091741 33.98567633 25.20507812 36.63085938 C25.19402411 43.13152976 25.17726764 49.63216711 25.15625 56.1328125 C24.49625 56.1328125 23.83625 56.1328125 23.15625 56.1328125 C22.846875 56.9990625 22.846875 56.9990625 22.53125 57.8828125 C20.53614816 61.14752459 18.56596278 62.39695872 15.15625 64.1328125 C9.11476532 65.03354294 2.68322876 64.31428469 -2.57421875 61.0625 C-5.02554104 59.21090739 -6.65873285 57.7930556 -7.49972534 54.79193115 C-7.84433395 52.12829889 -7.97074915 49.58472394 -7.97314453 46.89941406 C-7.97629669 45.88196106 -7.97944885 44.86450806 -7.98269653 43.81622314 C-7.9806723 42.72960388 -7.97864807 41.64298462 -7.9765625 40.5234375 C-7.97751923 39.40088562 -7.97847595 38.27833374 -7.97946167 37.12176514 C-7.98014107 34.75484155 -7.9783035 32.38791608 -7.97412109 30.02099609 C-7.96874946 26.38244496 -7.97408447 22.74401615 -7.98046875 19.10546875 C-7.97980832 16.80729139 -7.97852789 14.50911411 -7.9765625 12.2109375 C-7.97858673 11.11622131 -7.98061096 10.02150513 -7.98269653 8.89361572 C-7.97954437 7.88877136 -7.97639221 6.883927 -7.97314453 5.84863281 C-7.97234894 4.95992493 -7.97155334 4.07121704 -7.97073364 3.15557861 C-7.68515851 -1.39344592 -3.71573947 0.00325616 0 0 Z " fill="#E9AD15" transform="translate(354.84375,6.8671875)"/>
<path d="M0 0 C0.66 0.33 1.32 0.66 2 1 C1.59007812 1.7734375 1.18015625 2.546875 0.7578125 3.34375 C0.21898437 4.3853125 -0.31984375 5.426875 -0.875 6.5 C-1.40867188 7.5209375 -1.94234375 8.541875 -2.4921875 9.59375 C-5.93871374 17.37968494 -6.3388616 24.40314971 -6.3125 32.8125 C-6.32861328 33.82892578 -6.34472656 34.84535156 -6.36132812 35.89257812 C-6.36730061 45.26340889 -4.68961608 53.79317186 0 62 C0.495 62.886875 0.99 63.77375 1.5 64.6875 C2.89160764 67.00885176 2.89160764 67.00885176 4.6875 68.6875 C5.120625 69.120625 5.55375 69.55375 6 70 C6 70.66 6 71.32 6 72 C10.099361 72.9327418 14.12043288 73.28825262 18.3125 73.5625 C20.19388672 73.68818359 20.19388672 73.68818359 22.11328125 73.81640625 C23.06589844 73.87699219 24.01851563 73.93757813 25 74 C25 74.33 25 74.66 25 75 C34.9 75 44.8 75 55 75 C55 74.67 55 74.34 55 74 C62.59 74 70.18 74 78 74 C77.67 64.76 77.34 55.52 77 46 C77.66 46 78.32 46 79 46 C79 55.24 79 64.48 79 74 C79.99 74 80.98 74 82 74 C81.67 70.37 81.34 66.74 81 63 C84.75635569 63.75127114 86.83210307 64.24005726 90 66 C90 66.66 90 67.32 90 68 C102.99008641 71.33690293 119.93226067 72.73971857 132 66 C134.94314815 63.91690066 134.94314815 63.91690066 137 62 C137.66 62 138.32 62 139 62 C139.495 32.3 139.495 32.3 140 2 C140.33 2 140.66 2 141 2 C141 26.42 141 50.84 141 76 C136.96148942 78.01925529 135.55712158 78.22950264 131.22167969 78.13525391 C130.0607782 78.11508209 128.89987671 78.09491028 127.70379639 78.0741272 C126.45576233 78.04193085 125.20772827 78.0097345 123.921875 77.9765625 C122.64016418 77.95153656 121.35845337 77.92651062 120.03790283 77.90072632 C116.63794028 77.83422398 113.23837601 77.75529995 109.83874512 77.67376709 C106.36661004 77.59270123 102.89424204 77.52341204 99.421875 77.453125 C92.61430945 77.31359432 85.80709221 77.16093658 79 77 C79.33 77.99 79.66 78.98 80 80 C79.01 80.495 79.01 80.495 78 81 C78 79.68 78 78.36 78 77 C57.54 77.33 37.08 77.66 16 78 C17.485 78.99 17.485 78.99 19 80 C19 80.66 19 81.32 19 82 C16.08542477 81.58363211 14.16415977 81.10736934 11.67800903 79.48129272 C8.6168573 77.78807148 6.81220924 77.62032065 3.33935547 77.61181641 C1.6727034 77.59763168 1.6727034 77.59763168 -0.02761841 77.5831604 C-1.21733246 77.58923309 -2.40704651 77.59530579 -3.6328125 77.6015625 C-4.86160126 77.59869232 -6.09039001 77.59582214 -7.35641479 77.59286499 C-9.95034242 77.59082563 -12.54428548 77.59634649 -15.13818359 77.60888672 C-19.11720959 77.62496851 -23.09522397 77.60901844 -27.07421875 77.58984375 C-29.59375225 77.59182566 -32.11328512 77.59566826 -34.6328125 77.6015625 C-35.82657501 77.59548981 -37.02033752 77.58941711 -38.25027466 77.5831604 C-39.90747025 77.59734512 -39.90747025 77.59734512 -41.59814453 77.61181641 C-42.57123566 77.61420319 -43.54432678 77.61658997 -44.54690552 77.61904907 C-47.37585681 78.05836832 -48.25679876 78.78686806 -50 81 C-50 79.68 -50 78.36 -50 77 C-51.32 77 -52.64 77 -54 77 C-54 76.01 -54 75.02 -54 74 C-52.948125 74.144375 -51.89625 74.28875 -50.8125 74.4375 C-44.89515692 75.18383156 -38.94733899 75.57389492 -33 76 C-32.67 74.68 -32.34 73.36 -32 72 C-32 72.66 -32 73.32 -32 74 C-20.12 73.67 -8.24 73.34 4 73 C2.02 71.02 0.04 69.04 -2 67 C-7.06803548 58.75902777 -8.95337387 50.5242978 -10 41 C-17.26 41 -24.52 41 -32 41 C-32 40.67 -32 40.34 -32 40 C-24.41 40 -16.82 40 -9 40 C-9 35.38 -9 30.76 -9 26 C-15.6 26 -22.2 26 -29 26 C-29 25.67 -29 25.34 -29 25 C-22.73 25 -16.46 25 -10 25 C-9.690625 23.246875 -9.38125 21.49375 -9.0625 19.6875 C-8.52999575 16.66997591 -7.97016264 13.91048792 -7 11 C-15.25 10.67 -23.5 10.34 -32 10 C-32 9.67 -32 9.34 -32 9 C-31.20827393 9.01160156 -30.41654785 9.02320313 -29.60083008 9.03515625 C-26.00368876 9.06468207 -22.40958863 9.032984 -18.8125 9 C-17.56662109 9.01933594 -16.32074219 9.03867187 -15.03710938 9.05859375 C-8.48198499 9.19199699 -8.48198499 9.19199699 -3.02099609 6.15234375 C-1.75962509 4.13415015 -0.79425843 2.23961109 0 0 Z M139 63 C140 65 140 65 140 65 Z M139 66 C139 68.64 139 71.28 139 74 C139.33 74 139.66 74 140 74 C140 71.36 140 68.72 140 66 C139.67 66 139.34 66 139 66 Z " fill="#929292" transform="translate(253,14)"/>
<path d="M0 0 C0.33 0 0.66 0 1 0 C1 24.42 1 48.84 1 74 C-2.97209937 75.98604969 -4.26733465 76.23240058 -8.50292969 76.13525391 C-9.60376892 76.11508209 -10.70460815 76.09491028 -11.83880615 76.0741272 C-13.02121887 76.04193085 -14.20363159 76.0097345 -15.421875 75.9765625 C-16.63699768 75.95153656 -17.85212036 75.92651062 -19.10406494 75.90072632 C-22.98632736 75.81853447 -26.86808055 75.72194001 -30.75 75.625 C-33.38148959 75.56675973 -36.0130001 75.50945647 -38.64453125 75.453125 C-45.09663631 75.31295661 -51.54838198 75.16096089 -58 75 C-58 74.34 -58 73.68 -58 73 C-58.66 72.67 -59.32 72.34 -60 72 C-59.34 72 -58.68 72 -58 72 C-58.33 68.37 -58.66 64.74 -59 61 C-55.24364431 61.75127114 -53.16789693 62.24005726 -50 64 C-50 64.66 -50 65.32 -50 66 C-37.00991359 69.33690293 -20.06773933 70.73971857 -8 64 C-5.05685185 61.91690066 -5.05685185 61.91690066 -3 60 C-2.34 60 -1.68 60 -1 60 C-0.67 40.2 -0.34 20.4 0 0 Z M-1 61 C0 63 0 63 0 63 Z M-1 64 C-1 66.64 -1 69.28 -1 72 C-0.67 72 -0.34 72 0 72 C0 69.36 0 66.72 0 64 C-0.33 64 -0.66 64 -1 64 Z " fill="#D5BD7F" transform="translate(393,16)"/>
<path d="M0 0 C0.33 1.65 0.66 3.3 1 5 C-0.32 5 -1.64 5 -3 5 C-3 30.74 -3 56.48 -3 83 C-1.515 82.505 -1.515 82.505 0 82 C0.33 83.65 0.66 85.3 1 87 C-2.63 87 -6.26 87 -10 87 C-10 85.68 -10 84.36 -10 83 C-9.01 83 -8.02 83 -7 83 C-7 57.26 -7 31.52 -7 5 C-8.32 5 -9.64 5 -11 5 C-10.6875 3.0625 -10.6875 3.0625 -10 1 C-6.52674819 -0.1577506 -3.63932552 -0.06866652 0 0 Z " fill="#EDD26B" transform="translate(17,5)"/>
<path d="M0 0 C0.68429077 -0.00095673 1.36858154 -0.00191345 2.0736084 -0.00289917 C3.52286877 -0.0035808 4.97213218 -0.00172773 6.42138672 0.00244141 C8.64687928 0.00778998 10.87217001 0.0024959 13.09765625 -0.00390625 C14.50260461 -0.00324547 15.90755285 -0.0019643 17.3125 0 C18.59962891 0.00112793 19.88675781 0.00225586 21.21289062 0.00341797 C24.15625 0.1328125 24.15625 0.1328125 25.15625 1.1328125 C25.2498419 2.85146659 25.27369611 4.57396994 25.26977539 6.29516602 C25.26969986 7.39623184 25.26962433 8.49729767 25.26954651 9.63172913 C25.26438522 10.8296257 25.25922394 12.02752228 25.25390625 13.26171875 C25.2524913 14.48108627 25.25107635 15.7004538 25.24961853 16.95677185 C25.24399967 20.8696432 25.23144396 24.78245831 25.21875 28.6953125 C25.21373743 31.34049397 25.2091741 33.98567633 25.20507812 36.63085938 C25.19402411 43.13152976 25.17726764 49.63216711 25.15625 56.1328125 C24.49625 56.1328125 23.83625 56.1328125 23.15625 56.1328125 C22.846875 56.9990625 22.846875 56.9990625 22.53125 57.8828125 C20.53614816 61.14752459 18.56596278 62.39695872 15.15625 64.1328125 C9.11476532 65.03354294 2.68322876 64.31428469 -2.57421875 61.0625 C-5.02554104 59.21090739 -6.65873285 57.7930556 -7.49972534 54.79193115 C-7.84433395 52.12829889 -7.97074915 49.58472394 -7.97314453 46.89941406 C-7.97629669 45.88196106 -7.97944885 44.86450806 -7.98269653 43.81622314 C-7.9806723 42.72960388 -7.97864807 41.64298462 -7.9765625 40.5234375 C-7.97751923 39.40088562 -7.97847595 38.27833374 -7.97946167 37.12176514 C-7.98014107 34.75484155 -7.9783035 32.38791608 -7.97412109 30.02099609 C-7.96874946 26.38244496 -7.97408447 22.74401615 -7.98046875 19.10546875 C-7.97980832 16.80729139 -7.97852789 14.50911411 -7.9765625 12.2109375 C-7.97858673 11.11622131 -7.98061096 10.02150513 -7.98269653 8.89361572 C-7.97954437 7.88877136 -7.97639221 6.883927 -7.97314453 5.84863281 C-7.97234894 4.95992493 -7.97155334 4.07121704 -7.97073364 3.15557861 C-7.68515851 -1.39344592 -3.71573947 0.00325616 0 0 Z M-5.84375 2.1328125 C-6.67073831 12.78028696 -7.00270914 23.403809 -7.07592773 34.08108521 C-7.08776625 35.56850199 -7.1048181 37.05588683 -7.12719727 38.54318237 C-7.15736231 40.67091637 -7.16714081 42.79785636 -7.171875 44.92578125 C-7.1812207 46.1686792 -7.19056641 47.41157715 -7.20019531 48.69213867 C-6.80457225 52.51098508 -5.86719147 54.88635654 -3.84375 58.1328125 C-0.53171458 60.34083611 0.39436795 60.33612185 4.21875 60.1953125 C8.96092675 60.03515088 8.96092675 60.03515088 11.15625 61.1328125 C16.05906685 61.11612501 16.05906685 61.11612501 20.15625 59.1328125 C20.19705783 57.13322886 20.19879356 55.13235996 20.15625 53.1328125 C21.14625 53.1328125 22.13625 53.1328125 23.15625 53.1328125 C24.6266045 36.17122314 24.24366698 19.14027249 24.15625 2.1328125 C14.25625 2.1328125 4.35625 2.1328125 -5.84375 2.1328125 Z " fill="#E1B958" transform="translate(354.84375,6.8671875)"/>
<path d="M0 0 C0.66 0.33 1.32 0.66 2 1 C1.59007812 1.7734375 1.18015625 2.546875 0.7578125 3.34375 C0.21898437 4.3853125 -0.31984375 5.426875 -0.875 6.5 C-1.40867188 7.5209375 -1.94234375 8.541875 -2.4921875 9.59375 C-5.93871374 17.37968494 -6.3388616 24.40314971 -6.3125 32.8125 C-6.32861328 33.82892578 -6.34472656 34.84535156 -6.36132812 35.89257812 C-6.36730061 45.26340889 -4.68961608 53.79317186 0 62 C0.495 62.886875 0.99 63.77375 1.5 64.6875 C2.89160764 67.00885176 2.89160764 67.00885176 4.6875 68.6875 C5.120625 69.120625 5.55375 69.55375 6 70 C6 70.66 6 71.32 6 72 C2.14333491 71.44904784 0.54519957 69.87907556 -2 67 C-6.92202294 58.62785093 -8.94650525 50.58680222 -10 41 C-17.26 41 -24.52 41 -32 41 C-32 40.67 -32 40.34 -32 40 C-24.41 40 -16.82 40 -9 40 C-9 35.38 -9 30.76 -9 26 C-15.6 26 -22.2 26 -29 26 C-29 25.67 -29 25.34 -29 25 C-22.73 25 -16.46 25 -10 25 C-9.690625 23.246875 -9.38125 21.49375 -9.0625 19.6875 C-8.52999575 16.66997591 -7.97016264 13.91048792 -7 11 C-15.25 10.67 -23.5 10.34 -32 10 C-32 9.67 -32 9.34 -32 9 C-31.20827393 9.01160156 -30.41654785 9.02320313 -29.60083008 9.03515625 C-26.00368876 9.06468207 -22.40958863 9.032984 -18.8125 9 C-17.56662109 9.01933594 -16.32074219 9.03867187 -15.03710938 9.05859375 C-8.48198499 9.19199699 -8.48198499 9.19199699 -3.02099609 6.15234375 C-1.75962509 4.13415015 -0.79425843 2.23961109 0 0 Z " fill="#9F9F9F" transform="translate(253,14)"/>
<path d="M0 0 C2.9375 1.5 2.9375 1.5 5 3 C4.67 4.32 4.34 5.64 4 7 C3.34 7 2.68 7 2 7 C2 7.66 2 8.32 2 9 C0.625 10.625 0.625 10.625 -1 12 C-1.66 12 -2.32 12 -3 12 C-3 12.66 -3 13.32 -3 14 C-3.66 14 -4.32 14 -5 14 C-5 14.66 -5 15.32 -5 16 C-5.66 16 -6.32 16 -7 16 C-7 16.66 -7 17.32 -7 18 C-2.86484243 17.52286643 0.3202808 16.90800255 4 15 C4.66 15.33 5.32 15.66 6 16 C4.63016497 19.16115776 4.0109362 19.9927092 1 22 C-1.15625 22.265625 -1.15625 22.265625 -3.5 22.25 C-4.66015625 22.25773437 -4.66015625 22.25773437 -5.84375 22.265625 C-8 22 -8 22 -11 20 C-11 19.34 -11 18.68 -11 18 C-11.66 18 -12.32 18 -13 18 C-14.21247101 13.66270533 -14.60900944 9.47704239 -14 5 C-10.29553369 -0.10960871 -6.03474794 -0.41618951 0 0 Z M-8.875 6.1875 C-11.32228543 8.78862803 -11.32228543 8.78862803 -10.8125 11.8125 C-10.544375 12.534375 -10.27625 13.25625 -10 14 C-9.34 13.67 -8.68 13.34 -8 13 C-8 12.34 -8 11.68 -8 11 C-6.68 10.34 -5.36 9.68 -4 9 C-4 8.34 -4 7.68 -4 7 C-3.01 6.67 -2.02 6.34 -1 6 C-1 5.34 -1 4.68 -1 4 C-4.72064303 3.46847957 -5.81477182 3.85906552 -8.875 6.1875 Z " fill="#878787" transform="translate(393,112)"/>
<path d="M0 0 C0.85464844 0.07863281 1.70929688 0.15726562 2.58984375 0.23828125 C5.0625 0.6875 5.0625 0.6875 9.0625 2.6875 C9.0625 8.6275 9.0625 14.5675 9.0625 20.6875 C7.7425 20.6875 6.4225 20.6875 5.0625 20.6875 C4.0725 21.0175 3.0825 21.3475 2.0625 21.6875 C-5.03020217 22.25949211 -5.03020217 22.25949211 -8.8125 19.875 C-11.80601436 16.7934411 -12.87781852 15.20758147 -13.375 10.875 C-13.30250085 7.60045512 -12.67478115 5.80605239 -10.625 3.25 C-6.9848913 -0.22080132 -4.80842688 -0.48445805 0 0 Z M-6.9375 4.6875 C-6.9375 5.3475 -6.9375 6.0075 -6.9375 6.6875 C-7.5975 6.6875 -8.2575 6.6875 -8.9375 6.6875 C-9.3498079 10.72761811 -9.3498079 10.72761811 -8.9375 14.6875 C-6.27454905 17.16888611 -4.55290396 18.73501188 -0.8125 18.625 C-0.19375 18.315625 0.425 18.00625 1.0625 17.6875 C1.805 17.336875 2.5475 16.98625 3.3125 16.625 C5.32914561 14.39228522 5.41216236 13.61371478 5.5625 10.6875 C5.40823227 7.79365022 5.29138783 6.95877446 3.375 4.6875 C-0.43159632 3.04140429 -3.05771053 3.39423684 -6.9375 4.6875 Z " fill="#919191" transform="translate(71.9375,112.3125)"/>
<path d="M0 0 C0.78503906 0.05542969 1.57007813 0.11085938 2.37890625 0.16796875 C4.4375 0.8125 4.4375 0.8125 5.71484375 2.86328125 C5.95332031 3.50652344 6.19179687 4.14976563 6.4375 4.8125 C5.0625 6.8125 5.0625 6.8125 3.4375 8.8125 C2.7775 8.8125 2.1175 8.8125 1.4375 8.8125 C1.1075 9.8025 0.7775 10.7925 0.4375 11.8125 C-0.2225 11.8125 -0.8825 11.8125 -1.5625 11.8125 C-3.13523568 14.6549854 -3.13523568 14.6549854 -3.5625 17.8125 C-0.92190606 17.37240101 1.23323867 16.91754868 3.625 15.6875 C4.223125 15.39875 4.82125 15.11 5.4375 14.8125 C6.0975 15.1425 6.7575 15.4725 7.4375 15.8125 C6.7775 17.1325 6.1175 18.4525 5.4375 19.8125 C4.7775 19.8125 4.1175 19.8125 3.4375 19.8125 C3.4375 20.4725 3.4375 21.1325 3.4375 21.8125 C2.02126784 21.86697047 0.60441809 21.90550508 -0.8125 21.9375 C-1.99585938 21.97230469 -1.99585938 21.97230469 -3.203125 22.0078125 C-5.82674601 21.79062533 -7.34811501 21.21732488 -9.5625 19.8125 C-12.66279482 15.42932456 -12.93106075 12.00123722 -12.14453125 6.8671875 C-11.31811321 3.94976541 -10.01614574 2.54448523 -7.5625 0.8125 C-4.59565271 -0.1764491 -3.05101928 -0.26639872 0 0 Z M-7.375 6.8125 C-8.096875 7.8025 -8.81875 8.7925 -9.5625 9.8125 C-8.9025 11.1325 -8.2425 12.4525 -7.5625 13.8125 C-5.52130212 12.19655168 -3.52177063 10.5268618 -1.5625 8.8125 C-1.5625 8.1525 -1.5625 7.4925 -1.5625 6.8125 C-0.9025 6.8125 -0.2425 6.8125 0.4375 6.8125 C0.4375 5.8225 0.4375 4.8325 0.4375 3.8125 C-3.49782826 3.1378723 -4.93372095 3.84111464 -7.375 6.8125 Z " fill="#818181" transform="translate(242.5625,112.1875)"/>
<path d="M0 0 C1.32 0 2.64 0 4 0 C4 3.3 4 6.6 4 10 C5.2375 9.9175 6.475 9.835 7.75 9.75 C10.65716493 9.556189 11.77701639 9.85444126 14.25 11.46875 C16.81164964 15.17399323 16.43923494 18.36120512 16.25 22.75 C16.23195312 23.54277344 16.21390625 24.33554688 16.1953125 25.15234375 C16.14833082 27.10208348 16.07659044 29.05119878 16 31 C15.01 31 14.02 31 13 31 C12.67 26.05 12.34 21.1 12 16 C9.525 15.01 9.525 15.01 7 14 C6.01 14.495 6.01 14.495 5 15 C4.68758545 17.71446979 4.48663408 20.33909361 4.375 23.0625 C4.33632812 23.82111328 4.29765625 24.57972656 4.2578125 25.36132812 C4.16326438 27.24047195 4.08053244 29.12020336 4 31 C2.68 30.67 1.36 30.34 0 30 C0 20.1 0 10.2 0 0 Z " fill="#848484" transform="translate(154,103)"/>
<path d="M0 0 C0 0.99 0 1.98 0 3 C-0.99 3.66 -1.98 4.32 -3 5 C19.11 5 41.22 5 64 5 C64.33 4.01 64.66 3.02 65 2 C65.99 3.485 65.99 3.485 67 5 C67.99 5.33 68.98 5.66 70 6 C70 6.66 70 7.32 70 8 C68.68 8 67.36 8 66 8 C66 17.57 66 27.14 66 37 C65.34 36.67 64.68 36.34 64 36 C64.33 34.68 64.66 33.36 65 32 C64.34 31.67 63.68 31.34 63 31 C63.66 31 64.32 31 65 31 C65 23.41 65 15.82 65 8 C61.596875 8.144375 58.19375 8.28875 54.6875 8.4375 C53.08394653 8.50215454 53.08394653 8.50215454 51.44799805 8.56811523 C50.18016479 8.6252771 50.18016479 8.6252771 48.88671875 8.68359375 C48.02264404 8.72025146 47.15856934 8.75690918 46.26831055 8.79467773 C43.8352174 8.92747354 43.8352174 8.92747354 41 10 C41 9.01 41 8.02 41 7 C40.46084961 7.16298584 39.92169922 7.32597168 39.36621094 7.49389648 C36.56604976 8.09281664 34.00450567 8.11226789 31.140625 8.09765625 C30.02558594 8.09443359 28.91054688 8.09121094 27.76171875 8.08789062 C26.60285156 8.07951172 25.44398438 8.07113281 24.25 8.0625 C23.07566406 8.05798828 21.90132813 8.05347656 20.69140625 8.04882812 C17.79421928 8.03705094 14.89713546 8.02060326 12 8 C11.67 8.66 11.34 9.32 11 10 C10.34 9.67 9.68 9.34 9 9 C6.36065948 8.84918054 3.76527332 8.7686922 1.125 8.75 C0.40441406 8.729375 -0.31617188 8.70875 -1.05859375 8.6875 C-4.40790073 8.66282739 -6.60799026 8.76308446 -9.5078125 10.515625 C-10.00023437 11.00546875 -10.49265625 11.4953125 -11 12 C-9.97803953 7.23085112 -9.00321494 4.7524112 -5 1.75 C-2 0 -2 0 0 0 Z " fill="#929292" transform="translate(266,2)"/>
<path d="M0 0 C1.16015625 0.10054688 1.16015625 0.10054688 2.34375 0.203125 C4.92157484 0.85692116 5.92255408 1.6265151 7.5 3.75 C7.5 4.74 7.5 5.73 7.5 6.75 C6.984375 6.605625 6.46875 6.46125 5.9375 6.3125 C-0.01393187 4.70346471 -0.01393187 4.70346471 -5.875 5.75 C-8.17630319 8.58237316 -8.23047957 11.17885433 -8.5 14.75 C-7.84 14.75 -7.18 14.75 -6.5 14.75 C-6.5 15.41 -6.5 16.07 -6.5 16.75 C-1.43834084 17.90569065 -1.43834084 17.90569065 3.3125 16.25 C4.034375 15.755 4.75625 15.26 5.5 14.75 C6.16 15.08 6.82 15.41 7.5 15.75 C7.1875 17.625 7.1875 17.625 6.5 19.75 C3.39013793 21.82324138 2.60891613 22.02392186 -0.9375 22 C-1.69933594 22.00515625 -2.46117187 22.0103125 -3.24609375 22.015625 C-5.77042089 21.71813064 -7.35101647 21.09541063 -9.5 19.75 C-12.60029482 15.36682456 -12.86856075 11.93873722 -12.08203125 6.8046875 C-11.25561321 3.88726541 -9.95364574 2.48198523 -7.5 0.75 C-4.51786685 -0.24404438 -3.05541462 -0.30554146 0 0 Z " fill="#7F7F7F" transform="translate(131.5,112.25)"/>
<path d="M0 0 C1.16015625 0.10054688 1.16015625 0.10054688 2.34375 0.203125 C4.92157484 0.85692116 5.92255408 1.6265151 7.5 3.75 C7.5 4.74 7.5 5.73 7.5 6.75 C5.33125748 6.24396008 3.50032373 5.75016187 1.5 4.75 C0.12657169 4.6810528 -1.25002102 4.66532292 -2.625 4.6875 C-3.90375 4.708125 -5.1825 4.72875 -6.5 4.75 C-7.16 8.05 -7.82 11.35 -8.5 14.75 C-7.84 14.75 -7.18 14.75 -6.5 14.75 C-6.5 15.41 -6.5 16.07 -6.5 16.75 C-3.18815293 17.52131906 -3.18815293 17.52131906 0.5 17.75 C2.72743787 16.33022091 2.72743787 16.33022091 4.5 14.75 C5.49 15.08 6.48 15.41 7.5 15.75 C7.17012361 18.22407292 6.92027913 19.4137767 4.9375 21 C1.42676143 22.08022725 -1.89244293 22.34528278 -5.5 21.75 C-8.77981751 19.68228896 -10.34746007 17.97880989 -12.5 14.75 C-13.26142663 8.1147108 -13.26142663 8.1147108 -11.484375 4.9296875 C-8.02300112 0.61339597 -5.37130853 -0.53713085 0 0 Z " fill="#7B7B7B" transform="translate(276.5,112.25)"/>
<path d="M0 0 C0.66 0 1.32 0 2 0 C2.33 9.24 2.66 18.48 3 28 C3.66 28.33 4.32 28.66 5 29 C5 29.66 5 30.32 5 31 C4.01 31 3.02 31 2 31 C2.495 32.485 2.495 32.485 3 34 C2.01 34.495 2.01 34.495 1 35 C1 33.68 1 32.36 1 31 C-29.69 31.495 -29.69 31.495 -61 32 C-60.01 32.66 -59.02 33.32 -58 34 C-58 34.66 -58 35.32 -58 36 C-60.375 35.6875 -60.375 35.6875 -63 35 C-63.66 34.01 -64.32 33.02 -65 32 C-64.34 32 -63.68 32 -63 32 C-63.33 31.01 -63.66 30.02 -64 29 C-50.14 29 -36.28 29 -22 29 C-22 28.67 -22 28.34 -22 28 C-14.41 28 -6.82 28 1 28 C0.67 18.76 0.34 9.52 0 0 Z " fill="#7F7E7C" transform="translate(330,60)"/>
<path d="M0 0 C0.33 0 0.66 0 1 0 C1.33 16.5 1.66 33 2 50 C3.485 49.505 3.485 49.505 5 49 C5.33 50.65 5.66 52.3 6 54 C2.37 54 -1.26 54 -5 54 C-5 52.68 -5 51.36 -5 50 C-4.01 50 -3.02 50 -2 50 C-2.01160156 49.19304687 -2.02320313 48.38609375 -2.03515625 47.5546875 C-2.10272548 38.46179929 -1.91306769 29.38228987 -1.62667847 20.29400635 C-1.5839709 18.93382216 -1.54272606 17.57359124 -1.50296021 16.21331787 C-1.44543582 14.27227654 -1.38103402 12.33144281 -1.31640625 10.390625 C-1.26141968 8.6895459 -1.26141968 8.6895459 -1.20532227 6.95410156 C-1.03352659 4.48236826 -0.70888816 2.36272028 0 0 Z " fill="#DDAA40" transform="translate(12,38)"/>
<path d="M0 0 C0.99 0 1.98 0 3 0 C3.33 4.95 3.66 9.9 4 15 C6.31 15 8.62 15 11 15 C12.41634833 12.16730334 12.3463005 9.52533562 12.5625 6.375 C12.64628906 5.18648438 12.73007812 3.99796875 12.81640625 2.7734375 C12.87699219 1.85820313 12.93757813 0.94296875 13 0 C13.99 0 14.98 0 16 0 C16.1081866 2.58445773 16.18737237 5.16437352 16.25 7.75 C16.30027344 8.84441406 16.30027344 8.84441406 16.3515625 9.9609375 C16.41610835 13.51095942 16.31350633 15.56816373 14.19921875 18.48046875 C10.94143981 20.73140304 8.86643244 20.61048933 5 20 C2.296875 17.953125 2.296875 17.953125 0 15 C-0.36771245 12.1612599 -0.48630804 9.98179849 -0.3125 7.1875 C-0.28994141 6.49462891 -0.26738281 5.80175781 -0.24414062 5.08789062 C-0.18562661 3.39098427 -0.0959548 1.69520139 0 0 Z " fill="#858585" transform="translate(324,114)"/>
<path d="M0 0 C0.68429077 -0.00095673 1.36858154 -0.00191345 2.0736084 -0.00289917 C3.52286877 -0.0035808 4.97213218 -0.00172773 6.42138672 0.00244141 C8.64687928 0.00778998 10.87217001 0.0024959 13.09765625 -0.00390625 C14.50260461 -0.00324547 15.90755285 -0.0019643 17.3125 0 C18.59962891 0.00112793 19.88675781 0.00225586 21.21289062 0.00341797 C24.15625 0.1328125 24.15625 0.1328125 25.15625 1.1328125 C25.24472743 3.65375326 25.27152301 6.14712143 25.25390625 8.66796875 C25.2524913 9.42121933 25.25107635 10.17446991 25.24961853 10.95054626 C25.24400376 13.3655081 25.23144883 15.78037851 25.21875 18.1953125 C25.2137369 19.82877471 25.20917366 21.46223836 25.20507812 23.09570312 C25.19402954 27.10810835 25.17675506 31.12044491 25.15625 35.1328125 C24.82625 35.1328125 24.49625 35.1328125 24.15625 35.1328125 C24.15625 24.2428125 24.15625 13.3528125 24.15625 2.1328125 C14.25625 2.1328125 4.35625 2.1328125 -5.84375 2.1328125 C-5.823125 4.2571875 -5.8025 6.3815625 -5.78125 8.5703125 C-5.71863888 23.09303699 -6.36098424 37.6203089 -6.84375 52.1328125 C-7.17375 52.1328125 -7.50375 52.1328125 -7.84375 52.1328125 C-7.86901739 44.88794699 -7.8865818 37.64309276 -7.89868164 30.39819336 C-7.90372356 27.93139217 -7.91055691 25.46459398 -7.91918945 22.99780273 C-7.93126125 19.46076721 -7.93697956 15.92377105 -7.94140625 12.38671875 C-7.94656754 11.27631729 -7.95172882 10.16591583 -7.95704651 9.02186584 C-7.95712204 8.00088303 -7.95719757 6.97990021 -7.95727539 5.92797852 C-7.959496 5.02418961 -7.96171661 4.1204007 -7.96400452 3.18922424 C-7.69587642 -1.39589883 -3.75343601 0.00328919 0 0 Z " fill="#D6B051" transform="translate(354.84375,6.8671875)"/>
<path d="M0 0 C0.99 0 1.98 0 3 0 C3.33 2.31 3.66 4.62 4 7 C4.99 7.33 5.98 7.66 7 8 C7 8.99 7 9.98 7 11 C5.68 11 4.36 11 3 11 C3 16.61 3 22.22 3 28 C1.68 27.67 0.36 27.34 -1 27 C-1 21.72 -1 16.44 -1 11 C-1.99 11 -2.98 11 -4 11 C-4 10.01 -4 9.02 -4 8 C-3.01 8 -2.02 8 -1 8 C-1.020625 6.865625 -1.04125 5.73125 -1.0625 4.5625 C-1 1 -1 1 0 0 Z " fill="#8F8F8F" transform="translate(302,106)"/>
<path d="M0 0 C1.32 0.33 2.64 0.66 4 1 C4 3.31 4 5.62 4 8 C4.99 8 5.98 8 7 8 C7 8.99 7 9.98 7 11 C6.01 11 5.02 11 4 11 C4 16.28 4 21.56 4 27 C2.68 27.33 1.36 27.66 0 28 C0 22.39 0 16.78 0 11 C-0.99 11 -1.98 11 -3 11 C-3.33 10.01 -3.66 9.02 -4 8 C-2.68 8 -1.36 8 0 8 C0 5.36 0 2.72 0 0 Z " fill="#818181" transform="translate(209,106)"/>
<path d="M0 0 C3.75635569 0.75127114 5.83210307 1.24005726 9 3 C9 3.66 9 4.32 9 5 C12.63 5.66 16.26 6.32 20 7 C20 7.33 20 7.66 20 8 C14.74580887 8.181179 10.97486418 7.89518635 6 6 C5.34 6 4.68 6 4 6 C3.67 5.01 3.34 4.02 3 3 C3.33 5.97 3.66 8.94 4 12 C21.82 12 39.64 12 58 12 C57.67 12.99 57.34 13.98 57 15 C38.52 14.67 20.04 14.34 1 14 C1 13.34 1 12.68 1 12 C0.34 11.67 -0.32 11.34 -1 11 C-0.34 11 0.32 11 1 11 C0.67 7.37 0.34 3.74 0 0 Z " fill="#ECDBA9" transform="translate(334,77)"/>
<path d="M0 0 C0.99 0.495 0.99 0.495 2 1 C1.67 1.66 1.34 2.32 1 3 C1.99 2.67 2.98 2.34 4 2 C6.5 3 6.5 3 9 4 C11.75518826 4.51664203 14.52674818 4.82128086 17.3125 5.125 C18.42334961 5.25455078 18.42334961 5.25455078 19.55664062 5.38671875 C21.37038435 5.59734705 23.18510543 5.79952986 25 6 C24.67 6.99 24.34 7.98 24 9 C16.08 9 8.16 9 0 9 C0 6.03 0 3.06 0 0 Z " fill="#E6AD16" transform="translate(337,80)"/>
<path d="M0 0 C0 0.99 0 1.98 0 3 C-0.639375 3.103125 -1.27875 3.20625 -1.9375 3.3125 C-2.618125 3.539375 -3.29875 3.76625 -4 4 C-5.10514766 7.31544299 -5.32107631 10.20410111 -5.5625 13.6875 C-5.64628906 14.86699219 -5.73007812 16.04648438 -5.81640625 17.26171875 C-5.87699219 18.16535156 -5.93757813 19.06898438 -6 20 C-7.32 19.67 -8.64 19.34 -10 19 C-10 12.73 -10 6.46 -10 0 C-3 -1 -3 -1 0 0 Z " fill="#919191" transform="translate(366,114)"/>
<path d="M0 0 C0 0.99 0 1.98 0 3 C-0.99 3.66 -1.98 4.32 -3 5 C-1.96613159 4.99214478 -1.96613159 4.99214478 -0.91137695 4.98413086 C24.37660601 4.81727622 24.37660601 4.81727622 35 6 C35 6.33 35 6.66 35 7 C32.10425766 7.16839208 29.20842326 7.33477385 26.3125 7.5 C25.08756836 7.57154297 25.08756836 7.57154297 23.83789062 7.64453125 C19.88646942 7.86849844 15.95981243 8.06451833 12 8 C11.67 8.66 11.34 9.32 11 10 C10.34 9.67 9.68 9.34 9 9 C6.36065948 8.84918054 3.76527332 8.7686922 1.125 8.75 C0.40441406 8.729375 -0.31617188 8.70875 -1.05859375 8.6875 C-4.40790073 8.66282739 -6.60799026 8.76308446 -9.5078125 10.515625 C-10.00023437 11.00546875 -10.49265625 11.4953125 -11 12 C-9.97803953 7.23085112 -9.00321494 4.7524112 -5 1.75 C-2 0 -2 0 0 0 Z " fill="#777676" transform="translate(266,2)"/>
<path d="M0 0 C0.33 1.65 0.66 3.3 1 5 C-0.32 5 -1.64 5 -3 5 C-3 28.43 -3 51.86 -3 76 C-3.33 76 -3.66 76 -4 76 C-4 52.24 -4 28.48 -4 4 C-5.98 3.34 -7.96 2.68 -10 2 C-6.3558226 -0.4294516 -4.28758728 -0.16179575 0 0 Z " fill="#F0D49B" transform="translate(17,5)"/>
<path d="M0 0 C2.9375 1.5 2.9375 1.5 5 3 C4.6875 4.9375 4.6875 4.9375 4 7 C3.01 7.33 2.02 7.66 1 8 C0.34 7.67 -0.32 7.34 -1 7 C-1 6.01 -1 5.02 -1 4 C-6.40787385 5.09786425 -6.40787385 5.09786425 -10 9 C-10.38499891 10.65549531 -10.72793135 12.3222433 -11 14 C-13.85109227 11.14890773 -13.86327758 8.96495025 -14 5 C-10.25219486 -0.08630697 -6.04103697 -0.41662324 0 0 Z " fill="#878787" transform="translate(393,112)"/>
<path d="M0 0 C1.32 0 2.64 0 4 0 C4 4 4 4 2.0625 6.125 C1.381875 6.74375 0.70125 7.3625 0 8 C-1.28446919 10.56893838 -1.32977144 12.76576337 -1.5625 15.625 C-1.68818359 17.12933594 -1.68818359 17.12933594 -1.81640625 18.6640625 C-1.87699219 19.43492187 -1.93757813 20.20578125 -2 21 C-2.99 21 -3.98 21 -5 21 C-5 14.4 -5 7.8 -5 1 C-2.525 1.495 -2.525 1.495 0 2 C0 1.34 0 0.68 0 0 Z " fill="#7B7B7B" transform="translate(102,113)"/>
<path d="M0 0 C0.33 1.32 0.66 2.64 1 4 C1.66 4 2.32 4 3 4 C3 3.01 3 2.02 3 1 C3.66 1.33 4.32 1.66 5 2 C4.67 3.32 4.34 4.64 4 6 C4.66 6 5.32 6 6 6 C6 6.66 6 7.32 6 8 C11.06165916 9.15569065 11.06165916 9.15569065 15.8125 7.5 C16.534375 7.005 17.25625 6.51 18 6 C18.66 6.33 19.32 6.66 20 7 C19.6875 8.875 19.6875 8.875 19 11 C15.89013793 13.07324138 15.10891613 13.27392186 11.5625 13.25 C10.80066406 13.25515625 10.03882813 13.2603125 9.25390625 13.265625 C6.72314906 12.96737285 5.14610599 12.36486826 3 11 C0.6501558 7.22346468 -0.39259552 4.44941586 0 0 Z " fill="#868686" transform="translate(119,121)"/>
<path d="M0 0 C0 2.64 0 5.28 0 8 C-7.59 8 -15.18 8 -23 8 C-22.67 7.34 -22.34 6.68 -22 6 C-19.67284 5.62599214 -17.33882138 5.29235267 -15 5 C-14.67 4.67 -14.34 4.34 -14 4 C-11.32941149 3.85884839 -8.67567762 3.95752893 -6 4 C-6 3.34 -6 2.68 -6 2 C-1.125 0 -1.125 0 0 0 Z " fill="#E7AC17" transform="translate(390,81)"/>
<path d="M0 0 C3.45114277 -0.5251739 5.26286021 -0.5006738 8.1796875 1.48046875 C10.8426438 5.16632028 10.44069457 8.32735277 10.25 12.75 C10.23195312 13.54277344 10.21390625 14.33554688 10.1953125 15.15234375 C10.14833082 17.10208348 10.07659044 19.05119878 10 21 C9.01 21 8.02 21 7 21 C6.67 16.05 6.34 11.1 6 6 C3.36 5.01 0.72 4.02 -2 3 C-1.34 2.01 -0.68 1.02 0 0 Z " fill="#7C7C7C" transform="translate(160,113)"/>
<path d="M0 0 C0.66 0 1.32 0 2 0 C2.14695313 0.66644531 2.29390625 1.33289062 2.4453125 2.01953125 C4.31000682 9.68192457 6.97601297 17.97601297 12.6875 23.6875 C13.120625 24.120625 13.55375 24.55375 14 25 C14 25.66 14 26.32 14 27 C10.14116384 26.44873769 8.53881439 24.89049077 6 22 C2.24256737 15.34749632 -0.85171598 8.71076924 -1 1 C-0.67 0.67 -0.34 0.34 0 0 Z " fill="#919191" transform="translate(245,59)"/>
<path d="M0 0 C1.16015625 0.10054688 1.16015625 0.10054688 2.34375 0.203125 C4.92157484 0.85692116 5.92255408 1.6265151 7.5 3.75 C7.5 4.74 7.5 5.73 7.5 6.75 C5.33125748 6.24396008 3.50032373 5.75016187 1.5 4.75 C0.12657169 4.6810528 -1.25002102 4.66532292 -2.625 4.6875 C-3.90375 4.708125 -5.1825 4.72875 -6.5 4.75 C-6.83 5.74 -7.16 6.73 -7.5 7.75 C-8.16 7.75 -8.82 7.75 -9.5 7.75 C-9.83 9.07 -10.16 10.39 -10.5 11.75 C-11.25 9.0625 -11.25 9.0625 -11.5 5.75 C-8.39373918 0.75779511 -5.75824268 -0.57582427 0 0 Z " fill="#7C7C7C" transform="translate(276.5,112.25)"/>
<path d="M0 0 C1.32 0 2.64 0 4 0 C4 6.6 4 13.2 4 20 C2.68 19.67 1.36 19.34 0 19 C0 12.73 0 6.46 0 0 Z " fill="#989898" transform="translate(186,114)"/>
<path d="M0 0 C20.79 0 41.58 0 63 0 C62.67 1.32 62.34 2.64 62 4 C61.01 3.34 60.02 2.68 59 2 C56.27022796 1.70907803 56.27022796 1.70907803 53.15161133 1.77294922 C51.9505928 1.77310028 50.74957428 1.77325134 49.51216125 1.77340698 C48.21521835 1.78372955 46.91827545 1.79405212 45.58203125 1.8046875 C44.24110627 1.80841845 42.90017856 1.81126503 41.55924988 1.81326294 C38.03285167 1.82089301 34.50661866 1.84053597 30.98028564 1.8626709 C27.38076004 1.8831429 23.78120769 1.89226755 20.18164062 1.90234375 C13.12102624 1.92378255 6.06052391 1.95791087 -1 2 C-0.67 1.34 -0.34 0.68 0 0 Z " fill="#4B4B4B" transform="translate(31,8)"/>
<path d="M0 0 C0.66 0.33 1.32 0.66 2 1 C1.57847656 1.80824219 1.15695313 2.61648437 0.72265625 3.44921875 C0.17480469 4.51785156 -0.37304688 5.58648437 -0.9375 6.6875 C-1.75541016 8.27111328 -1.75541016 8.27111328 -2.58984375 9.88671875 C-3.8470576 12.66234047 -4.56069569 15.00272126 -5 18 C-6.32 17.67 -7.64 17.34 -9 17 C-8.34 15.02 -7.68 13.04 -7 11 C-15.25 10.67 -23.5 10.34 -32 10 C-32 9.67 -32 9.34 -32 9 C-31.20827393 9.01160156 -30.41654785 9.02320313 -29.60083008 9.03515625 C-26.00368876 9.06468207 -22.40958863 9.032984 -18.8125 9 C-17.56662109 9.01933594 -16.32074219 9.03867187 -15.03710938 9.05859375 C-8.48198499 9.19199699 -8.48198499 9.19199699 -3.02099609 6.15234375 C-1.75962509 4.13415015 -0.79425843 2.23961109 0 0 Z " fill="#A0A0A0" transform="translate(253,14)"/>
<path d="M0 0 C1.12341797 0.15847412 2.24683594 0.31694824 3.40429688 0.48022461 C8.11406324 1.06687768 12.78953493 1.22134855 17.53125 1.31640625 C18.84603333 1.3475779 18.84603333 1.3475779 20.18737793 1.37937927 C22.95818042 1.44420883 25.72906901 1.50344658 28.5 1.5625 C30.39063352 1.60574873 32.28125868 1.64936493 34.171875 1.69335938 C38.78116416 1.79982085 43.39053899 1.90127119 48 2 C48 2.33 48 2.66 48 3 C46.77369873 3.01458252 45.54739746 3.02916504 44.28393555 3.04418945 C39.73822734 3.10212083 35.19301719 3.17935381 30.64770508 3.26245117 C28.67968829 3.29572486 26.71157551 3.32374915 24.7434082 3.34643555 C21.91576188 3.37993678 19.08899718 3.43224963 16.26171875 3.48828125 C15.38037766 3.49467117 14.49903656 3.5010611 13.59098816 3.50764465 C12.77036392 3.52743881 11.94973969 3.54723297 11.10424805 3.56762695 C10.02169991 3.58428154 10.02169991 3.58428154 8.9172821 3.60127258 C6.49134381 4.10578264 5.57269911 5.13705026 4 7 C4 5.68 4 4.36 4 3 C2.68 3 1.36 3 0 3 C0 2.01 0 1.02 0 0 Z " fill="#686868" transform="translate(199,88)"/>
<path d="M0 0 C0.99 0 1.98 0 3 0 C3.0809313 2.60478883 3.14045434 5.20706653 3.1875 7.8125 C3.22520508 8.91948242 3.22520508 8.91948242 3.26367188 10.04882812 C3.33763538 15.49747292 3.33763538 15.49747292 1.65625 18 C-0.61948056 19.374026 -2.39560558 19.21116712 -5 19 C-5 18.34 -5 17.68 -5 17 C-4.35546875 16.43796875 -3.7109375 15.8759375 -3.046875 15.296875 C-0.3420349 12.26167275 -0.41048044 10.26201105 -0.25 6.25 C-0.19328125 5.07953125 -0.1365625 3.9090625 -0.078125 2.703125 C-0.05234375 1.81109375 -0.0265625 0.9190625 0 0 Z " fill="#7F7F7F" transform="translate(337,114)"/>
<path d="M0 0 C1.41623216 -0.05447047 2.83308191 -0.09300508 4.25 -0.125 C5.03890625 -0.14820312 5.8278125 -0.17140625 6.640625 -0.1953125 C9 0 9 0 13 2 C12.67 7.28 12.34 12.56 12 18 C11.67 18 11.34 18 11 18 C10.67 14.04 10.34 10.08 10 6 C6.3441622 4.53766488 2.7372512 3.21677946 -1 2 C-0.67 1.34 -0.34 0.68 0 0 Z " fill="#6C6C6C" transform="translate(68,113)"/>
<path d="M0 0 C11.22 0.33 22.44 0.66 34 1 C34 1.33 34 1.66 34 2 C18.655 2.495 18.655 2.495 3 3 C3.99 3.66 4.98 4.32 6 5 C6 5.66 6 6.32 6 7 C3.625 6.6875 3.625 6.6875 1 6 C0.34 5.01 -0.32 4.02 -1 3 C-0.34 3 0.32 3 1 3 C0.67 2.01 0.34 1.02 0 0 Z " fill="#6F6F6F" transform="translate(266,89)"/>
<path d="M0 0 C1.3125 2.125 1.3125 2.125 2 4 C1 5 1 5 -2.875 5.25 C-6.70325694 5.2225573 -6.70325694 5.2225573 -9 3.5 C-9.33 3.005 -9.66 2.51 -10 2 C-9.67 1.01 -9.34 0.02 -9 -1 C-5.55381731 -2.60001339 -3.22849079 -1.78416596 0 0 Z " fill="#3A3A3C" transform="translate(150,85)"/>
<path d="M0 0 C0 0.33 0 0.66 0 1 C-1.65 1.33 -3.3 1.66 -5 2 C-4.34 2.66 -3.68 3.32 -3 4 C-4.65 4.33 -6.3 4.66 -8 5 C-8 5.66 -8 6.32 -8 7 C-8.66 7 -9.32 7 -10 7 C-10 8.65 -10 10.3 -10 12 C-10.66 11.34 -11.32 10.68 -12 10 C-12.33 11.65 -12.66 13.3 -13 15 C-13.33 15 -13.66 15 -14 15 C-14.66964286 7.23214286 -14.66964286 7.23214286 -11.6875 3.5625 C-7.82200797 -0.1232017 -5.15370361 -0.11452675 0 0 Z " fill="#9B9B9B" transform="translate(73,112)"/>
<path d="M0 0 C0.99 0 1.98 0 3 0 C3 2.31 3 4.62 3 7 C3.99 7 4.98 7 6 7 C6 7.99 6 8.98 6 10 C5.01 10 4.02 10 3 10 C3 15.28 3 20.56 3 26 C2.67 26 2.34 26 2 26 C2 20.39 2 14.78 2 9 C1.01 8.67 0.02 8.34 -1 8 C-0.67 5.36 -0.34 2.72 0 0 Z " fill="#9D9D9D" transform="translate(210,107)"/>
<path d="M0 0 C0.33 1.32 0.66 2.64 1 4 C1.99 3.67 2.98 3.34 4 3 C4.33 4.65 4.66 6.3 5 8 C1.37 8 -2.26 8 -6 8 C-6 6.68 -6 5.36 -6 4 C-5.01 4 -4.02 4 -3 4 C-2.67 3.01 -2.34 2.02 -2 1 C-1.34 1.33 -0.68 1.66 0 2 C0 1.34 0 0.68 0 0 Z " fill="#E1C76B" transform="translate(13,84)"/>
<path d="M0 0 C0.99 0.495 0.99 0.495 2 1 C2.625 3.5625 2.625 3.5625 3 6 C9.32905858 6.71457113 15.66118686 7.37802877 22 8 C22 8.66 22 9.32 22 10 C19.77110504 10.05428973 17.54182529 10.09292338 15.3125 10.125 C13.45044922 10.15980469 13.45044922 10.15980469 11.55078125 10.1953125 C7.39837998 9.96690759 4.54544393 9.11911457 1.1875 6.6875 C-0.42143133 4.4011239 -0.22133294 2.72977292 0 0 Z " fill="#E8AB1E" transform="translate(348,59)"/>
<path d="M0 0 C2.97 0.33 5.94 0.66 9 1 C8.01 1.495 8.01 1.495 7 2 C7 4.97 7 7.94 7 11 C6.67 11 6.34 11 6 11 C5.67 13.97 5.34 16.94 5 20 C4.67 20 4.34 20 4 20 C4 14.39 4 8.78 4 3 C2.68 3 1.36 3 0 3 C0 2.01 0 1.02 0 0 Z " fill="#EBAB62" transform="translate(6,7)"/>
<path d="M0 0 C0 3 0 3 -2 5.1875 C-2.66 5.785625 -3.32 6.38375 -4 7 C-0.7 7 2.6 7 6 7 C6 7.33 6 7.66 6 8 C5.10796875 8.03738281 4.2159375 8.07476562 3.296875 8.11328125 C1.54117187 8.21189453 1.54117187 8.21189453 -0.25 8.3125 C-1.41015625 8.37050781 -2.5703125 8.42851562 -3.765625 8.48828125 C-7.10819638 9.01711803 -8.5497057 9.73772333 -11 12 C-9.97803953 7.23085112 -9.00321494 4.7524112 -5 1.75 C-2 0 -2 0 0 0 Z " fill="#A6A6A6" transform="translate(266,2)"/>
<path d="M0 0 C0.70189453 0.05671875 1.40378906 0.1134375 2.12695312 0.171875 C3.85630285 0.31304641 5.58454088 0.46771959 7.3125 0.625 C7.3125 0.955 7.3125 1.285 7.3125 1.625 C3.6825 1.955 0.0525 2.285 -3.6875 2.625 C-3.6875 3.285 -3.6875 3.945 -3.6875 4.625 C-5.625 5.1875 -5.625 5.1875 -7.6875 5.625 C-8.0175 5.295 -8.3475 4.965 -8.6875 4.625 C-11.21346259 4.38846477 -13.71857207 4.20326308 -16.25 4.0625 C-16.96091797 4.01931641 -17.67183594 3.97613281 -18.40429688 3.93164062 C-20.16511912 3.82528223 -21.9262832 3.72461154 -23.6875 3.625 C-23.6875 3.295 -23.6875 2.965 -23.6875 2.625 C-22.78386719 2.57601562 -21.88023437 2.52703125 -20.94921875 2.4765625 C-19.76972656 2.40179688 -18.59023437 2.32703125 -17.375 2.25 C-15.61736328 2.14558594 -15.61736328 2.14558594 -13.82421875 2.0390625 C-8.62182139 1.35232013 -5.59223226 -0.52215054 0 0 Z " fill="#8C8C8C" transform="translate(270.6875,87.375)"/>
<path d="M0 0 C0.99 0.66 1.98 1.32 3 2 C1.68 2.33 0.36 2.66 -1 3 C-1 3.66 -1 4.32 -1 5 C-3.05078125 5.22786458 -5.1015625 5.45572917 -7.15234375 5.68359375 C-9.01140229 5.81886614 -9.01140229 5.81886614 -10 7 C-11.68608966 7.07205511 -13.37500659 7.08386068 -15.0625 7.0625 C-15.98160156 7.05347656 -16.90070313 7.04445313 -17.84765625 7.03515625 C-18.55792969 7.02355469 -19.26820313 7.01195313 -20 7 C-20 6.34 -20 5.68 -20 5 C-18.1128125 4.87625 -18.1128125 4.87625 -16.1875 4.75 C-11.20026474 4.23625944 -6.97363466 2.59988143 -2.3828125 0.64453125 C-1.20332031 0.32548828 -1.20332031 0.32548828 0 0 Z " fill="#E1B84B" transform="translate(385,80)"/>
<path d="M0 0 C0.99 0.33 1.98 0.66 3 1 C2.67012361 3.47407292 2.42027913 4.6637767 0.4375 6.25 C-3.10914618 7.34127575 -6.29528399 7.12349053 -10 7 C-9.67 5.68 -9.34 4.36 -9 3 C-7.88625 3.0928125 -7.88625 3.0928125 -6.75 3.1875 C-3.50680777 2.96637326 -2.51492951 1.92811262 0 0 Z " fill="#8C8C8C" transform="translate(281,127)"/>
<path d="M0 0 C0.33 0 0.66 0 1 0 C1.19436491 2.45796853 1.3807742 4.91609294 1.5625 7.375 C1.61857422 8.07367188 1.67464844 8.77234375 1.73242188 9.4921875 C2.11328125 14.7734375 2.11328125 14.7734375 1 17 C0.34 17 -0.32 17 -1 17 C-2.35550385 14.2889923 -2.16917207 12.08660831 -2.1875 9.0625 C-2.20167969 8.00160156 -2.21585938 6.94070312 -2.23046875 5.84765625 C-2 3 -2 3 0 0 Z " fill="#E4C236" transform="translate(12,69)"/>
<path d="M0 0 C1.43861294 0.08746284 2.87597508 0.19565348 4.3125 0.3125 C5.11300781 0.37050781 5.91351563 0.42851563 6.73828125 0.48828125 C9.41109031 1.09301007 10.38866591 1.80462248 12 4 C12 4.99 12 5.98 12 7 C11.484375 6.855625 10.96875 6.71125 10.4375 6.5625 C7.81874845 5.91982899 7.81874845 5.91982899 4.375 5.5 C1 5 1 5 -1 4 C-0.01 3.67 0.98 3.34 2 3 C2 2.34 2 1.68 2 1 C1.34 0.67 0.68 0.34 0 0 Z " fill="#8F8F8F" transform="translate(127,112)"/>
<path d="M0 0 C1.45947705 0.06006078 2.91779272 0.1488689 4.375 0.25 C5.59316406 0.31960937 5.59316406 0.31960937 6.8359375 0.390625 C9 1 9 1 10.2890625 3.046875 C10.64097656 4.01367188 10.64097656 4.01367188 11 5 C10.01 6.485 10.01 6.485 9 8 C8.01 8 7.02 8 6 8 C5.67 6.35 5.34 4.7 5 3 C3.35 3 1.7 3 0 3 C0 2.01 0 1.02 0 0 Z " fill="#787878" transform="translate(238,112)"/>
<path d="M0 0 C0.33 0 0.66 0 1 0 C1.33634376 1.93697967 1.66897165 3.87460486 2 5.8125 C2.185625 6.89144531 2.37125 7.97039062 2.5625 9.08203125 C3 12 3 12 3 15 C0.03 14.505 0.03 14.505 -3 14 C-3.33 12.68 -3.66 11.36 -4 10 C-3.01 9.34 -2.02 8.68 -1 8 C-0.42251197 6.03638136 -0.42251197 6.03638136 -0.3125 3.875 C-0.209375 2.59625 -0.10625 1.3175 0 0 Z " fill="#8B8B8B" transform="translate(77,119)"/>
<path d="M0 0 C0.33 0 0.66 0 1 0 C1 3.3 1 6.6 1 10 C1.66 10.33 2.32 10.66 3 11 C2.67 11.33 2.34 11.66 2 12 C2.66 12.66 3.32 13.32 4 14 C3.01 14.495 3.01 14.495 2 15 C1.68758545 17.71446979 1.48663408 20.33909361 1.375 23.0625 C1.33632812 23.82111328 1.29765625 24.57972656 1.2578125 25.36132812 C1.16326438 27.24047195 1.08053244 29.12020336 1 31 C0.01 30.67 -0.98 30.34 -2 30 C-1.34 30 -0.68 30 0 30 C-0.08378906 28.92363281 -0.16757813 27.84726563 -0.25390625 26.73828125 C-0.90466814 17.67446965 -1.02337566 9.05293856 0 0 Z " fill="#A8A8A8" transform="translate(157,103)"/>
<path d="M0 0 C1.62610337 4.22786875 0.65453403 5.03639791 -1 10 C-7.93 9.67 -14.86 9.34 -22 9 C-22 8.67 -22 8.34 -22 8 C-15.73 8 -9.46 8 -3 8 C-2.34 5.69 -1.68 3.38 -1 1 C-0.67 0.67 -0.34 0.34 0 0 Z " fill="#828282" transform="translate(246,31)"/>
<path d="M0 0 C3.3 0.33 6.6 0.66 10 1 C9.67 1.99 9.34 2.98 9 4 C3.06 4 -2.88 4 -9 4 C-8.67 3.34 -8.34 2.68 -8 2 C-5.03 2.33 -2.06 2.66 1 3 C0.67 2.01 0.34 1.02 0 0 Z " fill="#E0AB24" transform="translate(352,85)"/>
<path d="M0 0 C1.43861294 0.08746284 2.87597508 0.19565348 4.3125 0.3125 C5.11300781 0.37050781 5.91351563 0.42851563 6.73828125 0.48828125 C9.41109031 1.09301007 10.38866591 1.80462248 12 4 C12 4.99 12 5.98 12 7 C8.30099992 6.11223998 4.65449539 5.05418136 1 4 C1.99 3.67 2.98 3.34 4 3 C4 2.34 4 1.68 4 1 C2.68 0.67 1.36 0.34 0 0 Z " fill="#959595" transform="translate(272,112)"/>
<path d="M0 0 C2.0625 0.4375 2.0625 0.4375 4 1 C2.25 4.875 2.25 4.875 0 6 C-1.54023996 6.06950541 -3.08334988 6.08452357 -4.625 6.0625 C-5.85089844 6.04896484 -5.85089844 6.04896484 -7.1015625 6.03515625 C-8.04128906 6.01775391 -8.04128906 6.01775391 -9 6 C-7.38371879 2.76743757 -4.23006285 2.32663296 -1 1 C-0.67 0.67 -0.34 0.34 0 0 Z " fill="#686868" transform="translate(395,127)"/>
<path d="M0 0 C1.32 0 2.64 0 4 0 C4 1.32 4 2.64 4 4 C-0.625 6.125 -0.625 6.125 -4 5 C-4.6875 2.9375 -4.6875 2.9375 -5 1 C-2.525 1.495 -2.525 1.495 0 2 C0 1.34 0 0.68 0 0 Z " fill="#747474" transform="translate(102,113)"/>
<path d="M0 0 C4.455 0.99 4.455 0.99 9 2 C8.01 2.495 8.01 2.495 7 3 C7 3.66 7 4.32 7 5 C8.32 5.33 9.64 5.66 11 6 C4.67741935 6.36476427 4.67741935 6.36476427 1.5625 4.6875 C0 3 0 3 0 0 Z " fill="#939393" transform="translate(325,128)"/>
<path d="M0 0 C0.33 0.66 0.66 1.32 1 2 C0.67 2.66 0.34 3.32 0 4 C0.66 4.33 1.32 4.66 2 5 C1.34 5 0.68 5 0 5 C-0.33 5.99 -0.66 6.98 -1 8 C-1.66 8 -2.32 8 -3 8 C-3.33 8.99 -3.66 9.98 -4 11 C-4.33 10.34 -4.66 9.68 -5 9 C-5.66 8.67 -6.32 8.34 -7 8 C-5.71937515 6.2925002 -4.38232443 4.62626404 -3 3 C-2.34 3 -1.68 3 -1 3 C-0.67 2.01 -0.34 1.02 0 0 Z " fill="#8A8A8A" transform="translate(244,116)"/>
<path d="M0 0 C1 3 1 3 0.0625 5.1875 C-0.4634375 6.0846875 -0.4634375 6.0846875 -1 7 C-2.98 7 -4.96 7 -7 7 C-7.33 6.34 -7.66 5.68 -8 5 C-7.34 5 -6.68 5 -6 5 C-5.67 4.01 -5.34 3.02 -5 2 C-2.4375 0.8125 -2.4375 0.8125 0 0 Z " fill="#343537" transform="translate(172,83)"/>
<path d="M0 0 C0.99 0.33 1.98 0.66 3 1 C2.34 2.32 1.68 3.64 1 5 C0.34 5 -0.32 5 -1 5 C-1 5.66 -1 6.32 -1 7 C-3.97 7 -6.94 7 -10 7 C-10 6.67 -10 6.34 -10 6 C-6.535 5.505 -6.535 5.505 -3 5 C-3.66 4.34 -4.32 3.68 -5 3 C-2.6875 1.4375 -2.6875 1.4375 0 0 Z " fill="#939393" transform="translate(247,127)"/>
<path d="M0 0 C2.31 0.33 4.62 0.66 7 1 C7.33 1.99 7.66 2.98 8 4 C7.01 4.99 6.02 5.98 5 7 C4.01 6.34 3.02 5.68 2 5 C2.33 4.01 2.66 3.02 3 2 C2.01 2 1.02 2 0 2 C0 1.34 0 0.68 0 0 Z " fill="#717171" transform="translate(390,113)"/>
<path d="M0 0 C0.33 1.32 0.66 2.64 1 4 C1.66 4 2.32 4 3 4 C3 3.01 3 2.02 3 1 C3.66 1.33 4.32 1.66 5 2 C4.67 3.32 4.34 4.64 4 6 C4.66 6 5.32 6 6 6 C5.67 7.65 5.34 9.3 5 11 C4.34 11 3.68 11 3 11 C0.84694043 7.14243493 -0.39253254 4.44870215 0 0 Z " fill="#A2A2A2" transform="translate(119,121)"/>
<path d="M0 0 C0.33 1.65 0.66 3.3 1 5 C-1.375 5.125 -1.375 5.125 -4 5 C-4.66 4.34 -5.32 3.68 -6 3 C-7.31747324 2.30251417 -8.64914193 1.63040043 -10 1 C-6.52674819 -0.1577506 -3.63932552 -0.06866652 0 0 Z " fill="#EBD487" transform="translate(17,5)"/>
<path d="M0 0 C3.63 0 7.26 0 11 0 C11 0.33 11 0.66 11 1 C8.03 1 5.06 1 2 1 C2.66 1.61875 3.32 2.2375 4 2.875 C6 5 6 5 6 7 C3.625 6.6875 3.625 6.6875 1 6 C0.34 5.01 -0.32 4.02 -1 3 C-0.34 3 0.32 3 1 3 C0.67 2.01 0.34 1.02 0 0 Z " fill="#5D5D5D" transform="translate(266,89)"/>
<path d="M0 0 C0 0.66 0 1.32 0 2 C0.99 2.33 1.98 2.66 3 3 C-0.8503105 5.56687367 -2.58569763 4.83288724 -7 4 C-5.34072249 0.68144498 -3.61238217 0 0 0 Z " fill="#2A2B2E" transform="translate(160,85)"/>
<path d="M0 0 C3.71368887 1.23789629 4.77354181 2.85224877 7 6 C7 6.66 7 7.32 7 8 C5.1875 7.8125 5.1875 7.8125 3 7 C0 2.82142857 0 2.82142857 0 0 Z " fill="#818181" transform="translate(252,78)"/>
<path d="M0 0 C0.66 0.66 1.32 1.32 2 2 C2.66 1.67 3.32 1.34 4 1 C4.1875 3.875 4.1875 3.875 4 7 C3.01 7.66 2.02 8.32 1 9 C0 8 0 8 -0.09765625 6.15234375 C-0.06510417 4.1015625 -0.03255208 2.05078125 0 0 Z " fill="#949494" transform="translate(264,119)"/>
<path d="M0 0 C0.33 0.99 0.66 1.98 1 3 C0.01 4.485 0.01 4.485 -1 6 C-1.38499891 7.65549531 -1.72793135 9.3222433 -2 11 C-4 9 -4 9 -4.375 6.0625 C-4 3 -4 3 -2 1.125 C-1.34 0.75375 -0.68 0.3825 0 0 Z " fill="#696969" transform="translate(384,115)"/>
<path d="M0 0 C0.78375 0.04125 1.5675 0.0825 2.375 0.125 C2.375 2.125 2.375 2.125 0.875 3.75 C0.38 4.20375 -0.115 4.6575 -0.625 5.125 C-1.615 4.795 -2.605 4.465 -3.625 4.125 C-4.285 4.785 -4.945 5.445 -5.625 6.125 C-4.86443086 2.32215429 -4.27658992 0.20364714 0 0 Z " fill="#777777" transform="translate(126.625,112.875)"/>
<path d="M0 0 C1.65 0.33 3.3 0.66 5 1 C4.01 2.485 4.01 2.485 3 4 C-0.2578125 4.29296875 -0.2578125 4.29296875 -4.125 4.1875 C-6.04699219 4.14689453 -6.04699219 4.14689453 -8.0078125 4.10546875 C-8.99523437 4.07066406 -9.98265625 4.03585938 -11 4 C-11 3.67 -11 3.34 -11 3 C-5.06 2.505 -5.06 2.505 1 2 C0.67 1.34 0.34 0.68 0 0 Z " fill="#505050" transform="translate(257,86)"/>
<path d="M0 0 C0.99 0.33 1.98 0.66 3 1 C4.03159626 4.09478879 3.97482862 5.52631393 3.5625 8.6875 C3.46066406 9.49574219 3.35882813 10.30398437 3.25390625 11.13671875 C3.17011719 11.75160156 3.08632813 12.36648437 3 13 C2.67 13 2.34 13 2 13 C2 10.03 2 7.06 2 4 C0.35 4 -1.3 4 -3 4 C-2.01 2.68 -1.02 1.36 0 0 Z " fill="#D7C169" transform="translate(389,76)"/>
<path d="M0 0 C0 1.32 0 2.64 0 4 C-2.64 4 -5.28 4 -8 4 C-8 3.34 -8 2.68 -8 2 C-2.25 0 -2.25 0 0 0 Z " fill="#787878" transform="translate(74,130)"/>
<path d="M0 0 C1.65 0 3.3 0 5 0 C5.33 1.98 5.66 3.96 6 6 C5.01 6.495 5.01 6.495 4 7 C4 5.68 4 4.36 4 3 C2.68 3 1.36 3 0 3 C0 2.01 0 1.02 0 0 Z " fill="#767676" transform="translate(199,88)"/>
<path d="M0 0 C0.99 0 1.98 0 3 0 C3 1.98 3 3.96 3 6 C1.68 5.67 0.36 5.34 -1 5 C-0.67 3.35 -0.34 1.7 0 0 Z " fill="#7C7C7C" transform="translate(187,107)"/>
<path d="M0 0 C0.33 0.66 0.66 1.32 1 2 C3.02463255 2.65213292 3.02463255 2.65213292 5 3 C3 5 3 5 -0.125 5.125 C-1.548125 5.063125 -1.548125 5.063125 -3 5 C-3 4.01 -3 3.02 -3 2 C-2.01 2 -1.02 2 0 2 C0 1.34 0 0.68 0 0 Z " fill="#2D2D30" transform="translate(177,85)"/>
<path d="M0 0 C-0.99 0.66 -1.98 1.32 -3 2 C-0.69 2.33 1.62 2.66 4 3 C4 3.33 4 3.66 4 4 C2.56344146 4.08131463 1.1255517 4.13933559 -0.3125 4.1875 C-1.51326172 4.23970703 -1.51326172 4.23970703 -2.73828125 4.29296875 C-5.47851584 3.93801608 -6.29171079 3.10633718 -8 1 C-5.07175348 0.02391783 -3.04386724 -0.08226668 0 0 Z " fill="#9A9A9A" transform="translate(390,130)"/>
<path d="M0 0 C1.74627478 2.61941217 2.38722388 4.03824877 3 7 C2.01 7.66 1.02 8.32 0 9 C-1.36623674 6.26752652 -1.128426 4.01801098 -1 1 C-0.67 0.67 -0.34 0.34 0 0 Z " fill="#737373" transform="translate(61,121)"/>
<path d="M0 0 C0.66 0.33 1.32 0.66 2 1 C2.34153937 2.66500443 2.67449498 4.33178677 3 6 C3.66 6.66 4.32 7.32 5 8 C4.34 8 3.68 8 3 8 C2.67 8.66 2.34 9.32 2 10 C0.68 7.03 -0.64 4.06 -2 1 C-1.34 0.67 -0.68 0.34 0 0 Z " fill="#555555" transform="translate(310,29)"/>
<path d="M0 0 C0.33 0.66 0.66 1.32 1 2 C3.02463255 2.65213292 3.02463255 2.65213292 5 3 C4.34 4.32 3.68 5.64 3 7 C3 6.34 3 5.68 3 5 C2.34 5 1.68 5 1 5 C0.67 5.66 0.34 6.32 0 7 C0 4.69 0 2.38 0 0 Z " fill="#959595" transform="translate(97,116)"/>
<path d="M0 0 C0.66 0 1.32 0 2 0 C2 0.66 2 1.32 2 2 C4.64 2.33 7.28 2.66 10 3 C10 3.33 10 3.66 10 4 C5.71 4 1.42 4 -3 4 C-2.34 3.67 -1.68 3.34 -1 3 C-0.67 2.01 -0.34 1.02 0 0 Z " fill="#3A3A3A" transform="translate(307,86)"/>
<path d="M0 0 C0.99 0.66 1.98 1.32 3 2 C2.360625 2.12375 1.72125 2.2475 1.0625 2.375 C0.381875 2.58125 -0.29875 2.7875 -1 3 C-1.33 3.66 -1.66 4.32 -2 5 C-2.33 4.67 -2.66 4.34 -3 4 C-4.99958364 3.95919217 -7.00045254 3.95745644 -9 4 C-9 3.67 -9 3.34 -9 3 C-7.56879256 2.44191911 -6.12969645 1.90403538 -4.6875 1.375 C-3.88699219 1.07335937 -3.08648437 0.77171875 -2.26171875 0.4609375 C-1.51535156 0.30882813 -0.76898438 0.15671875 0 0 Z " fill="#ECC567" transform="translate(385,80)"/>
<path d="M0 0 C0.99 0.495 0.99 0.495 2 1 C2.625 3.5625 2.625 3.5625 3 6 C3.99 6.33 4.98 6.66 6 7 C6 7.66 6 8.32 6 9 C3.53199953 7.84826645 1.95216435 6.95216435 0 5 C-0.125 2.375 -0.125 2.375 0 0 Z " fill="#DFBD63" transform="translate(348,59)"/>
<path d="M0 0 C0 0.99 0 1.98 0 3 C-3.465 4.485 -3.465 4.485 -7 6 C-5.52522876 2.59668175 -4.14385429 0 0 0 Z " fill="#7D7D7D" transform="translate(266,2)"/>
<path d="M0 0 C2.25 0.25 2.25 0.25 4 1 C3.67 1.99 3.34 2.98 3 4 C0.69 4 -1.62 4 -4 4 C-2.25 1.9375 -2.25 1.9375 0 0 Z " fill="#9D9D9D" transform="translate(395,127)"/>
<path d="M0 0 C-0.33 1.32 -0.66 2.64 -1 4 C-2.65 4 -4.3 4 -6 4 C-6 3.34 -6 2.68 -6 2 C-3 0 -3 0 0 0 Z " fill="#6E6E6E" transform="translate(338,129)"/>
<path d="M0 0 C0.66 0.33 1.32 0.66 2 1 C1.34 2.65 0.68 4.3 0 6 C-0.99 6 -1.98 6 -3 6 C-1.125 1.125 -1.125 1.125 0 0 Z " fill="#818181" transform="translate(247,114)"/>
<path d="M0 0 C0.66 0 1.32 0 2 0 C1.67 1.65 1.34 3.3 1 5 C-0.65 5.33 -2.3 5.66 -4 6 C-4 5.34 -4 4.68 -4 4 C-3.01 3.67 -2.02 3.34 -1 3 C-0.67 2.01 -0.34 1.02 0 0 Z " fill="#898989" transform="translate(203,4)"/>
<path d="M0 0 C1.67542976 0.28604898 3.34385343 0.61781233 5 1 C5 1.99 5 2.98 5 4 C2.13275314 3.42655063 1.1385485 3.1385485 -1 1 C-0.67 0.67 -0.34 0.34 0 0 Z " fill="#828282" transform="translate(279,115)"/>
<path d="M0 0 C1.98 0 3.96 0 6 0 C6 0.66 6 1.32 6 2 C4.02 2.66 2.04 3.32 0 4 C0 2.68 0 1.36 0 0 Z " fill="#5E5E5E" transform="translate(270,113)"/>
<path d="M0 0 C0.66 0.33 1.32 0.66 2 1 C2.33 1.99 2.66 2.98 3 4 C2.34 4 1.68 4 1 4 C1 4.66 1 5.32 1 6 C0.34 6 -0.32 6 -1 6 C-1.625 4.125 -1.625 4.125 -2 2 C-1.34 1.34 -0.68 0.68 0 0 Z " fill="#4E4E4E" transform="translate(72,78)"/>
<path d="M0 0 C0.66 0 1.32 0 2 0 C1.67 2.97 1.34 5.94 1 9 C0.67 9 0.34 9 0 9 C-0.87890625 2.84765625 -0.87890625 2.84765625 -1 1 C-0.67 0.67 -0.34 0.34 0 0 Z " fill="#A3A3A3" transform="translate(245,59)"/>
</svg>
